<svg width="620" height="340" viewBox="0 0 620 340" fill="none" xmlns="http://www.w3.org/2000/svg" role="img" aria-label="Estadisticas de GitHub de Dayloc">
  <rect width="620" height="340" rx="24" fill="#0d1117" />
  <rect x="1" y="1" width="618" height="338" rx="23" stroke="#30363d" />
  <text x="40" y="58" fill="#e6edf3" font-size="28" font-weight="700" font-family="Segoe UI, Arial, sans-serif">Estadisticas de GitHub</text>
  <text x="40" y="86" fill="#8b949e" font-size="15" font-family="Segoe UI, Arial, sans-serif">@Dayloc</text>
  <rect x="40" y="98" width="540" height="1" fill="#30363d" />
  <circle cx="548" cy="58" r="8" fill="#a371f7" />
  <circle cx="572" cy="58" r="8" fill="#58a6ff" />
  
            <g>
              <rect x="40" y="122" width="152" height="76" rx="16" fill="#111827" stroke="#30363d" />
              <text x="56" y="150" fill="#8b949e" font-size="14" font-family="Segoe UI, Arial, sans-serif">Repos públicos</text>
              <text x="56" y="180" fill="#e6edf3" font-size="28" font-weight="700" font-family="Segoe UI, Arial, sans-serif">174</text>
            </g>
            
            <g>
              <rect x="220" y="122" width="152" height="76" rx="16" fill="#111827" stroke="#30363d" />
              <text x="236" y="150" fill="#8b949e" font-size="14" font-family="Segoe UI, Arial, sans-serif">Seguidores</text>
              <text x="236" y="180" fill="#e6edf3" font-size="28" font-weight="700" font-family="Segoe UI, Arial, sans-serif">12</text>
            </g>
            
            <g>
              <rect x="400" y="122" width="152" height="76" rx="16" fill="#111827" stroke="#30363d" />
              <text x="416" y="150" fill="#8b949e" font-size="14" font-family="Segoe UI, Arial, sans-serif">Siguiendo</text>
              <text x="416" y="180" fill="#e6edf3" font-size="28" font-weight="700" font-family="Segoe UI, Arial, sans-serif">8</text>
            </g>
            
            <g>
              <rect x="40" y="230" width="152" height="76" rx="16" fill="#111827" stroke="#30363d" />
              <text x="56" y="258" fill="#8b949e" font-size="14" font-family="Segoe UI, Arial, sans-serif">Estrellas</text>
              <text x="56" y="288" fill="#e6edf3" font-size="28" font-weight="700" font-family="Segoe UI, Arial, sans-serif">6</text>
            </g>
            
            <g>
              <rect x="220" y="230" width="152" height="76" rx="16" fill="#111827" stroke="#30363d" />
              <text x="236" y="258" fill="#8b949e" font-size="14" font-family="Segoe UI, Arial, sans-serif">Forks</text>
              <text x="236" y="288" fill="#e6edf3" font-size="28" font-weight="700" font-family="Segoe UI, Arial, sans-serif">12</text>
            </g>
            
</svg>
